name C:\Users\u0150099\Documents\master_thesis\3dpredictsim\Results\debug\Fal_s1_mtp_sd_ATx70_Fpsl10_MTPp_k17_d04_ig21_test1.mot
datacolumns 126
datarows 4
range 0.73890455 0.76107168
endheader
time	pelvis_tilt	pelvis_list	pelvis_rotation	pelvis_tx	pelvis_ty	pelvis_tz	hip_flexion_l	hip_adduction_l	hip_rotation_l	hip_flexion_r	hip_adduction_r	hip_rotation_r	knee_angle_l	knee_angle_r	ankle_angle_l	ankle_angle_r	subtalar_angle_l	subtalar_angle_r	mtp_angle_l	mtp_angle_r	lumbar_extension	lumbar_bending	lumbar_rotation	arm_flex_l	arm_add_l	arm_rot_l	arm_flex_r	arm_add_r	arm_rot_r	elbow_flex_l	elbow_flex_r	pro_sup_l	pro_sup_r	glut_med1_l/activation	glut_med2_l/activation	glut_med3_l/activation	glut_min1_l/activation	glut_min2_l/activation	glut_min3_l/activation	semimem_l/activation	semiten_l/activation	bifemlh_l/activation	bifemsh_l/activation	sar_l/activation	add_long_l/activation	add_brev_l/activation	add_mag1_l/activation	add_mag2_l/activation	add_mag3_l/activation	tfl_l/activation	pect_l/activation	grac_l/activation	glut_max1_l/activation	glut_max2_l/activation	glut_max3_l/activation	iliacus_l/activation	psoas_l/activation	quad_fem_l/activation	gem_l/activation	peri_l/activation	rect_fem_l/activation	vas_med_l/activation	vas_int_l/activation	vas_lat_l/activation	med_gas_l/activation	lat_gas_l/activation	soleus_l/activation	tib_post_l/activation	flex_dig_l/activation	flex_hal_l/activation	tib_ant_l/activation	per_brev_l/activation	per_long_l/activation	per_tert_l/activation	ext_dig_l/activation	ext_hal_l/activation	ercspn_l/activation	intobl_l/activation	extobl_l/activation	glut_med1_r/activation	glut_med2_r/activation	glut_med3_r/activation	glut_min1_r/activation	glut_min2_r/activation	glut_min3_r/activation	semimem_r/activation	semiten_r/activation	bifemlh_r/activation	bifemsh_r/activation	sar_r/activation	add_long_r/activation	add_brev_r/activation	add_mag1_r/activation	add_mag2_r/activation	add_mag3_r/activation	tfl_r/activation	pect_r/activation	grac_r/activation	glut_max1_r/activation	glut_max2_r/activation	glut_max3_r/activation	iliacus_r/activation	psoas_r/activation	quad_fem_r/activation	gem_r/activation	peri_r/activation	rect_fem_r/activation	vas_med_r/activation	vas_int_r/activation	vas_lat_r/activation	med_gas_r/activation	lat_gas_r/activation	soleus_r/activation	tib_post_r/activation	flex_dig_r/activation	flex_hal_r/activation	tib_ant_r/activation	per_brev_r/activation	per_long_r/activation	per_tert_r/activation	ext_dig_r/activation	ext_hal_r/activation	ercspn_r/activation	intobl_r/activation	extobl_r/activation	
          0.73890455	         -1.46787867	         -3.14652028	          3.79665722	          0.96912125	          0.90647843	         -0.01730999	          7.90745719	         -6.82004588	          1.80094134	         26.05531041	         -2.99964784	          7.09460727	        -40.88507314	        -20.61111831	          1.89843765	         -3.50475573	        -10.33923157	         -1.57802255	         24.96336364	         -0.00735970	        -10.37205309	          1.29233742	         -9.12567706	         21.33294092	        -29.01598535	          1.92690443	          7.26278338	        -33.09695628	          0.44651506	         68.63337732	         45.38151999	         86.51662706	         86.51662706	          0.66155847	          0.61103782	          0.54812376	          0.64122796	          0.62853363	          0.60571779	          0.56557078	          0.60328874	          0.57338708	          0.59551289	          0.60875916	          0.59601248	          0.58875255	          0.58373819	          0.59046194	          0.56781329	          0.63593441	          0.60500320	          0.59605186	          0.59644259	          0.57261830	          0.51660258	          0.63072626	          0.64337728	          0.52529413	          0.57760265	          0.56324240	          0.60742519	          0.51867855	          0.51689634	          0.49054044	          0.66176106	          0.62666035	          0.82558701	          0.76063631	          0.63831608	          0.63664437	          0.48693571	          0.52583842	          0.47259679	          0.53835194	          0.44862665	          0.56519710	          0.66101141	          0.27653611	          0.39712325	          0.45316162	          0.55018386	          0.64574503	          0.55613143	          0.57146723	          0.59732178	          0.63520986	          0.59616847	          0.62907247	          0.71934761	          0.66334024	          0.58717130	          0.56199545	          0.56737828	          0.55438336	          0.48964874	          0.60325127	          0.60590192	          0.61299477	          0.59384937	          0.58712865	          0.52605090	          0.69576159	          0.69085128	          0.67510056	          0.62310925	          0.64489780	          0.55495580	          0.48432820	          0.47342726	          0.44807258	          0.25204614	          0.41159231	          0.10871097	          0.39740696	          0.54759011	          0.53922651	          0.84352468	          0.59287577	          0.54156790	          0.66478039	          0.79174634	          0.67722277	          0.82259956	          0.68605617	          0.47892699	
          0.74629359	         -1.48880232	         -3.02258786	          4.03305751	          0.98058348	          0.90698172	         -0.01698271	          7.71751348	         -6.88013258	          1.60361717	         25.88092401	         -2.81675688	          6.95417048	        -41.42827642	        -20.55577156	          0.13277607	         -3.42736470	        -10.51032467	         -1.58704387	         26.07225237	          0.02948469	        -10.02412986	          1.54210505	         -9.44007234	         21.51162293	        -28.96271088	          1.91391691	          7.19411372	        -33.22576595	          0.38281920	         69.18754375	         45.33463347	         86.51662706	         86.51662706	          0.64742239	          0.59378328	          0.53250285	          0.63516592	          0.62240586	          0.60080648	          0.56521894	          0.62052597	          0.57973134	          0.63999494	          0.61912397	          0.62732928	          0.59926186	          0.58757386	          0.58865271	          0.55159367	          0.63915405	          0.61076549	          0.61032590	          0.59292647	          0.56124403	          0.49470532	          0.67883017	          0.68852541	          0.53113029	          0.57891633	          0.56043512	          0.59133509	          0.47918098	          0.47731403	          0.44829594	          0.66066591	          0.62452836	          0.80499190	          0.75218096	          0.63538561	          0.63285096	          0.46605263	          0.52122716	          0.46559158	          0.53166556	          0.43717291	          0.56196166	          0.67871564	          0.29265918	          0.42108415	          0.46060726	          0.55633151	          0.64655189	          0.55594632	          0.57230315	          0.59804129	          0.66205572	          0.62607820	          0.66068033	          0.73030477	          0.65864643	          0.58387476	          0.56047197	          0.57256877	          0.56201008	          0.51196052	          0.59801881	          0.60419909	          0.61728338	          0.59830168	          0.59744774	          0.54617536	          0.67738935	          0.67335655	          0.67424075	          0.61950629	          0.63872374	          0.52623370	          0.47628658	          0.46500201	          0.43927245	          0.25344344	          0.41027673	          0.10425056	          0.39057672	          0.54525822	          0.53620144	          0.83053633	          0.63040646	          0.56488768	          0.70191358	          0.81186066	          0.67891292	          0.79039554	          0.67608386	          0.47386288	
          0.75368264	         -1.51062829	         -2.85767979	          4.24939262	          0.99219215	          0.90746023	         -0.01665135	          7.65734008	         -6.91673780	          1.42019016	         25.65112720	         -2.66565517	          6.83878661	        -42.17456492	        -20.71586896	         -1.86085051	         -3.39618935	        -10.58918228	         -2.02824110	         27.19212585	          0.08519450	         -9.64831155	          1.76326110	         -9.71942327	         21.63570380	        -28.91556870	          1.92267901	          7.13163495	        -33.34173460	          0.31471268	         69.64271627	         45.30167387	         86.51662706	         86.51662706	          0.63874985	          0.58140131	          0.51893276	          0.63343869	          0.62070102	          0.59765434	          0.56465329	          0.63705637	          0.58538114	          0.68643999	          0.63337566	          0.64392710	          0.60128932	          0.58397347	          0.58297323	          0.53397632	          0.64319538	          0.61455521	          0.62191762	          0.58959910	          0.54943084	          0.47063464	          0.72118528	          0.72691323	          0.53125852	          0.57961235	          0.55748493	          0.57631925	          0.44188319	          0.44003738	          0.40934533	          0.65341179	          0.61938389	          0.76641682	          0.74087519	          0.63104986	          0.62790841	          0.45999754	          0.51471924	          0.45627962	          0.52681656	          0.43342175	          0.56320593	          0.66729012	          0.29827882	          0.43671969	          0.48421544	          0.55677917	          0.62928054	          0.56104146	          0.57393080	          0.59659040	          0.67437728	          0.64673854	          0.67690807	          0.72597102	          0.64697589	          0.59620925	          0.58042740	          0.58702351	          0.57667229	          0.54064401	          0.59363792	          0.60560944	          0.62507472	          0.59635855	          0.59611085	          0.56668543	          0.66008372	          0.65518703	          0.66217881	          0.61363879	          0.63083171	          0.50161829	          0.47468007	          0.46318538	          0.43703239	          0.27082165	          0.42116767	          0.10701788	          0.41079165	          0.54819327	          0.53995968	          0.80335177	          0.62742297	          0.55059118	          0.71488477	          0.80145909	          0.67475347	          0.77582906	          0.68122182	          0.48091022	
          0.76107168	         -1.52540175	         -2.68702420	          4.44924943	          1.00392285	          0.90787573	         -0.01631183	          7.72440390	         -6.98024299	          1.24697489	         25.36271850	         -2.52534917	          6.80956390	        -43.13013308	        -21.14563602	         -4.00778394	         -3.41175132	        -10.49132359	         -2.82169047	         28.22794885	          0.10148004	         -9.25697856	          1.99413021	         -9.96317321	         21.70165036	        -28.88208209	          1.93876567	          7.06000733	        -33.42996983	          0.27132615	         69.99160761	         45.27621321	         86.51662706	         86.51662706	          0.62444705	          0.56363148	          0.50120130	          0.62950737	          0.61518210	          0.59186542	          0.56415707	          0.65719157	          0.59212408	          0.72628271	          0.64549295	          0.67640967	          0.60828733	          0.58904182	          0.58228424	          0.51972114	          0.64514439	          0.62013264	          0.63707047	          0.58584177	          0.53712273	          0.44971030	          0.75530556	          0.75728793	          0.53363295	          0.57971706	          0.55350015	          0.55828489	          0.40776581	          0.40600851	          0.37418608	          0.64183949	          0.61212167	          0.71724059	          0.72697758	          0.62550793	          0.62220767	          0.48992858	          0.50684671	          0.44564609	          0.52581494	          0.44228595	          0.57004416	          0.66741356	          0.32363096	          0.47356592	          0.52789386	          0.57811200	          0.62970294	          0.57504909	          0.58559879	          0.60280220	          0.67640964	          0.65438986	          0.68249671	          0.71843811	          0.63876804	          0.58921274	          0.58215161	          0.58729018	          0.58124609	          0.56007963	          0.59210959	          0.60412845	          0.62398223	          0.60098540	          0.60198117	          0.57637970	          0.63894751	          0.63426290	          0.64395731	          0.60898644	          0.62786646	          0.48372057	          0.47593756	          0.46457782	          0.43804425	          0.28997697	          0.43550563	          0.11143157	          0.50184825	          0.55787602	          0.55178947	          0.84965908	          0.58814912	          0.51389232	          0.68137499	          0.77088682	          0.67980923	          0.74487166	          0.66477020	          0.47719137	
